<svg xmlns="http://www.w3.org/2000/svg" viewBox="0 0 333.78 127.02"><defs><style>.cls-1{fill:#ea5b0c;stroke:#ea5b0c;}.cls-1,.cls-8{stroke-miterlimit:10;}.cls-2{fill:#feda02;}.cls-3{font-size:60.3px;}.cls-10,.cls-3{fill:#1d1d1b;}.cls-3,.cls-4{font-family:Arial-BoldMT, Arial;font-weight:700;}.cls-4{font-size:21.64px;}.cls-4,.cls-5,.cls-9{fill:#fff;}.cls-5{font-size:53.14px;font-family:Haettenschweiler;letter-spacing:-0.02em;}.cls-6{letter-spacing:-0.02em;}.cls-7{letter-spacing:0em;}.cls-8{fill:#f9d84c;stroke:#1d1d1b;stroke-width:2px;}</style></defs><g id="Capa_2" data-name="Capa 2"><g id="Capa_1-2" data-name="Capa 1"><polygon class="cls-1" points="137.4 10.14 150.63 0.86 171.78 14.99 150.67 2.87 137.4 10.14"/><polygon class="cls-1" points="173.4 7.45 183.6 0.64 195.01 11.66 193.14 11.54 183.66 2.27 174.52 8.14 173.4 7.45"/><polygon class="cls-1" points="160.7 7.65 169.14 2.87 177.6 10.92 169.11 4.12 161.89 8.24 160.7 7.65"/><rect class="cls-2" y="40.68" width="244" height="82"/><rect x="244" y="40.68" width="89.78" height="82"/><text class="cls-3" transform="translate(11.25 104.32) scale(0.89 1)">TEPSUR</text><text class="cls-4" transform="translate(102.82 30.19) scale(0.96 1)">CONSORCIO</text><text class="cls-5" transform="translate(252.46 100.83) scale(1.19 1)">S<tspan class="cls-6" x="19.51" y="0">A</tspan><tspan class="cls-7" x="42.09" y="0">C</tspan></text><polygon class="cls-8" points="289.69 83.51 266.78 102.32 312.6 102.32 289.69 83.51"/><polygon class="cls-9" points="289.69 82.21 287.25 84.22 289.7 74.57 292.84 84.81 289.69 82.21"/><polygon class="cls-10" points="289.48 68.27 286.52 81.17 292.82 81.17 289.48 68.27"/><rect class="cls-10" x="252.81" y="85.6" width="9.62" height="3.12"/><rect class="cls-10" x="265.79" y="74.57" width="9.62" height="2.39"/></g></g></svg>